<svg xmlns="http://www.w3.org/2000/svg" viewBox="0 0 215 190.27"><defs><style>.cls-1{fill:#9e5600;}.cls-2{fill:#492f00;}.cls-3{fill:#ce811b;}.cls-4{fill:#603900;}.cls-5{fill:none;stroke:#512f02;stroke-linecap:round;stroke-miterlimit:10;stroke-width:10px;}.cls-6{fill:#724817;}.cls-7{fill:#5b3712;}</style></defs><title>Asset 7power</title><g id="Layer_2" data-name="Layer 2"><g id="Layer_1-2" data-name="Layer 1"><path class="cls-1" d="M124.77,185.27a5,5,0,0,1-3.78-1.73L39.86,89.77a5,5,0,0,1,0-6.49L104.2,6.78A5,5,0,0,1,107.66,5H108a5,5,0,0,1,3.31,1.25l47.44,41.86a5,5,0,0,1,.58,6.9L139.29,79.78,158.1,115l27-5.88a5,5,0,0,1,5.57,2.73l18.84,39.32a5,5,0,0,1-.41,5l-18.84,27a5,5,0,0,1-4.1,2.14Z"/><path class="cls-2" d="M108,10l47.44,41.86L133.32,79.22l22.15,41.45,30.7-6.68L205,153.31l-18.84,27H124.77L43.64,86.5,108,10m0-10-.74,0a10,10,0,0,0-6.91,3.53L36,80.06a10,10,0,0,0,.09,13l81.13,93.78a10,10,0,0,0,7.56,3.46h61.39a10,10,0,0,0,8.2-4.27l18.84-27a10,10,0,0,0,.82-10l-18.84-39.32A10,10,0,0,0,184,104.21l-23.31,5.07L145.26,80.35l18-22.21a10,10,0,0,0-1.16-13.79L114.64,2.5A10,10,0,0,0,108,0Z"/><path class="cls-3" d="M108,10,43.64,86.5,56.36,99.05c16.06-12.29,32.16-24.72,45.71-39.81,9.6-10.69,17.21-21.2,22.66-34.51Z"/><path class="cls-4" d="M74.49,122.16c1.15-4.87,4.06-25.16,4-30.17-.18-15.77-6.85-16.2-14.08-30.17L43.64,86.5Z"/><line class="cls-5" x1="38.77" y1="169.97" x2="83.36" y2="169.97"/><line class="cls-5" x1="21.34" y1="146.06" x2="65.94" y2="146.06"/><line class="cls-5" x1="5" y1="122.16" x2="49.6" y2="122.16"/><path class="cls-6" d="M205,153.31,186.16,114l-30.7,6.68c17.21.47,21,6.83,24.88,11.12,5.58,6.15,7.34,10.07,7.34,17.5,0,16.32-.78,26.52-17.31,31h15.79Z"/><path class="cls-7" d="M147.27,112.46a4.11,4.11,0,0,1-5.86.55,4.28,4.28,0,0,1-.54-6,4.11,4.11,0,0,1,5.86-.55A4.28,4.28,0,0,1,147.27,112.46Z"/><path class="cls-7" d="M137.53,94.69a4.11,4.11,0,0,1-5.86.55,4.28,4.28,0,0,1-.54-6,4.11,4.11,0,0,1,5.86-.55A4.28,4.28,0,0,1,137.53,94.69Z"/></g></g></svg>