<svg xmlns="http://www.w3.org/2000/svg" viewBox="0 0 220 220"><defs><style>.cls-1{fill:#33ad00;}.cls-2{fill:#0a770f;}.cls-3{fill:#40d800;}.cls-4{fill:#f4f406;}.cls-5{fill:#8c7e00;}.cls-6{fill:#fcff71;}</style></defs><title>Asset 6power</title><g id="Layer_2" data-name="Layer 2"><g id="Layer_1-2" data-name="Layer 1"><path class="cls-1" d="M110,215a5,5,0,0,1-2.19-.5c-19.21-9.34-46.68-26.3-68.42-54C16.57,131.32,5,96.82,5,57.89a5,5,0,0,1,1.67-3.73L60.31,6.27A5,5,0,0,1,63.64,5h92.71a5,5,0,0,1,3.33,1.27l53.64,47.89A5,5,0,0,1,215,57.89c0,38.93-11.57,73.44-34.39,102.57-21.74,27.74-49.21,44.7-68.42,54A5,5,0,0,1,110,215Z"/><path class="cls-2" d="M156.36,10,210,57.89C210,142,154.45,188.39,110,210,65.55,188.39,10,142,10,57.89L63.64,10h92.71m0-10H63.64A10,10,0,0,0,57,2.54L3.34,50.43A10,10,0,0,0,0,57.89C0,98,11.93,133.51,35.46,163.54,57.78,192,85.94,209.42,105.63,219a10,10,0,0,0,8.74,0c19.69-9.57,47.84-27,70.17-55.46C208.07,133.51,220,98,220,57.89a10,10,0,0,0-3.34-7.46L163,2.54A10,10,0,0,0,156.36,0Z"/><path class="cls-3" d="M110,10H63.64L10,57.89C10,115.22,35.83,155,66.36,181.43l0-.12c-3.69-9.65-5.17-20-6-30.33-2.39-29.05.12-59.08,11.87-85.68C82.86,41.08,101.91,20,126,10Z"/><path class="cls-4" d="M110,145.57c-27.14,0-49.22-22.37-49.22-49.86S82.86,45.86,110,45.86s49.22,22.37,49.22,49.86S137.14,145.57,110,145.57Z"/><path class="cls-5" d="M110,50.86c24.42,0,44.22,20.08,44.22,44.86s-19.8,44.86-44.22,44.86S65.78,120.49,65.78,95.71,85.58,50.86,110,50.86m0-10c-29.89,0-54.22,24.61-54.22,54.86S80.11,150.57,110,150.57,164.22,126,164.22,95.71,139.89,40.86,110,40.86Z"/><path class="cls-6" d="M88.17,74.57c1.3-2.3,8.4-3.85,11.28-3.88,4.06,0,1.34,6,.11,8.32-5.4,10.32-6.62,25.68-3.13,37,.72,2.35-4.81-.53-7.41-2-1.86-1.09-3.84-1.82-5.28-3.53a14.76,14.76,0,0,1-3-4.8c-.74-2.24-3.27-7.56-3.07-9.93.36-4.42.52-8.19,2-12.32s4.59-6.25,8.47-8.83L126.34,10"/></g></g></svg>