<svg xmlns="http://www.w3.org/2000/svg" viewBox="0 0 210.02 187.51"><defs><style>.cls-1{fill:#cc0505;}.cls-2{fill:#840000;}.cls-3{fill:#e01717;}</style></defs><title>Asset 4power</title><g id="Layer_2" data-name="Layer 2"><g id="Layer_1-2" data-name="Layer 1"><path class="cls-1" d="M103.46,182.23c22.08-16.49,83-64.83,93.15-90.09,5.47-13.63,9.26-28.54,8.17-43.48S197.1,18.78,185.71,11.3C177.2,5.72,167,4.71,157.17,5.08c-19.45.73-47.68,9.94-55.39,30.3C94.06,15,72.22,7,52.77,6.31c-9.81-.37-20,.64-28.54,6.22C12.84,20,6.25,35,5.16,49.89s2.7,29.85,8.17,43.48c10.13,25.26,70.5,68.69,90.14,88.86"/><path class="cls-2" d="M106,186.54q21.88-16.36,42.61-34.22c15.56-13.41,31.2-27.42,43.76-43.76,14.1-18.36,20.48-44.63,16.48-67.39-2.09-11.94-7.75-24-17.31-31.75C181.28,1.12,167.72-.67,154.93.2,132.34,1.73,106,11.56,97,34.05h9.64C98.23,13.1,77.58,3.2,56,1.5,43.93.54,30.72,1.79,20.55,9,11,15.79,4.93,26.64,2.08,37.85c-3.27,12.87-2.4,26.42.7,39.23C5.17,87,8.49,97,14.43,105.35c11,15.43,25.71,28.19,39.9,40.54,15.18,13.21,31.49,25.49,45.6,39.87,4.51,4.6,11.58-2.47,7.07-7.07-23.44-23.89-51.67-42.59-74.54-67.16-4.63-5-9.16-10.19-12.56-16.12-5.17-9-8-20.42-9.33-30.65-2.87-22.22,5-49.46,30.39-53,20.59-2.9,47.56,3.87,56,25,1.89,4.72,7.75,4.72,9.64,0,6.88-17.12,29.18-24.67,46-26.32,11.19-1.09,23.91-.56,32.93,7,8.58,7.2,13,18.84,14.1,29.73,2.11,20.11-4.31,42.13-17.08,57.82-11.54,14.18-25.28,26.63-39,38.59s-28,23.46-42.59,34.39c-5.09,3.81-.11,12.49,5,8.63Z"/><path class="cls-3" d="M95.49,162c-17.9-35.26-21.07-44.66-12-70.42,2-5.67,15.17-16.48,18.91-20.86,5.24-6.13,4.27-16.84-2.23-30.47-.68-3.12-5.08-8.08-10.75-15.25-11.5-9.5-23-13.1-37.12-13.62-9.81-.37-21.56,0-28.87,7.5-9.75,10-12.52,19.54-13.25,34.5s3.38,30.1,10.25,42.87c12.51,23.24,62.6,58.6,83.37,79.25C103.7,168.3,98.82,168.6,95.49,162Z"/></g></g></svg>