<svg xmlns="http://www.w3.org/2000/svg" viewBox="0 0 209.12 209.28"><defs><style>.cls-1{fill:#00bc1b;}.cls-2{fill:#1c6600;}.cls-3{fill:#7fdd57;}</style></defs><title>Asset 10power</title><g id="Layer_2" data-name="Layer 2"><g id="Layer_1-2" data-name="Layer 1"><path class="cls-1" d="M204.52,112.71a201.4,201.4,0,0,0-2.4-22.28c-1.77-10.91-4.61-23.51-13.46-30.12C182.88,56,175.32,55,168.32,56.11s-13.57,4.22-19.9,7.55q-2.32,1.22-4.61,2.49a80.47,80.47,0,0,0,7-15.63c2.68-8.68,3.22-18.66-.34-26.91A30.31,30.31,0,0,0,133.9,7.89C127,5.06,119.55,4.5,112.22,4.49A155.37,155.37,0,0,0,87.7,6.4c-9.55,1.51-19.78,4.45-25.8,13.14-4.42,6.39-5.81,15-5.13,23.17a70,70,0,0,0,3.16,15.08,69.82,69.82,0,0,0-15.61-8.65c-7.54-2.77-16.19-3.28-23.32.51C14.47,53.11,9.89,59.85,7.49,67.13S4.67,81.92,4.69,89.47A201.57,201.57,0,0,0,6,111.86c1.25,11,3.48,23.72,12,30.78,5.56,4.6,13.07,6,20.11,5.25s13.75-3.5,20.24-6.5q4.76-2.2,9.42-4.6l-3.25,5.46c-4.23,7.12-8.51,14.34-10.79,22.38s-2.36,17.13,1.57,24.43c3.61,6.7,10.24,11.19,17.27,13.36s14.21,2.27,21.39,1.9a174.72,174.72,0,0,0,21.23-2.44c10.4-1.82,22.41-4.76,28.74-14,4.12-6,5.11-14,4.06-21.34s-4-14.26-7.12-20.92c-1.11-2.35-2.27-4.68-3.44-7l8,5.21c6.79,4.42,13.69,8.88,21.35,11.25s16.32,2.43,23.27-1.73c6.37-3.81,10.62-10.78,12.67-18.17S204.89,120.25,204.52,112.71Z"/><path class="cls-2" d="M209,112.71a194.84,194.84,0,0,0-3.85-30.45c-1.78-8.23-4.72-16.76-10.76-22.87-15.15-15.35-37.09-5.77-52.87,2.89l6.16,6.16c8.24-14.86,14.44-33.83,5.31-49.82C144.07,3,125.91-.26,109.38,0,94.06.27,74.64,1.16,62.59,12c-13.2,11.85-11.67,31.61-7,47l6.61-5.08C50.68,46,36.14,38.87,22,44.31,8.91,49.34,2.7,63,1,76.08c-2,14.71-.73,30.49,1.87,45.06,2.24,12.55,7.84,25,20.61,29.6,15.94,5.78,32.69-3,46.64-10.05l-6.16-6.16c-7.73,13-16.91,26.8-16.19,42.6.64,14.15,9.71,25,23,29.41,15.1,5,33.21,2.15,48.46-.81,12.42-2.42,25.42-7.37,30.91-19.72,7.45-16.75-1.17-34.68-8.74-49.67l-6.16,6.16c15.06,9.8,33.42,23.95,52.5,16.91s22.1-29.12,21.32-46.7c-.25-5.77-9.25-5.8-9,0,.62,14-.73,35.07-17.75,38.94-15.53,3.52-30.43-9.06-42.53-16.93-4-2.61-8.06,2.39-6.16,6.16,6.58,13,16.8,32.67,5.44,46.08-9,10.61-28.42,11.68-41.14,12.63-14.5,1.09-34.77.5-40.09-16.29-5-15.73,6.3-31.43,13.91-44.23,2.4-4-2.28-8.13-6.16-6.16-12.2,6.21-29.31,15.89-42.73,7.62-11.73-7.22-12.3-25.82-13.14-38C8.68,88.28,7.3,70,17.3,58.38c11.38-13.27,28.75-4.71,40.37,3.29,3.26,2.24,7.71-1.47,6.61-5.08C60.57,44.39,58.1,27.84,69,18.34c9.76-8.55,26.34-8.94,38.54-9.29C121,8.67,137,9.69,144.83,22.5c8,13.1,1.81,29.24-4.91,41.38A4.54,4.54,0,0,0,146.07,70c12.63-6.93,32.65-17.11,43.82-2.14,4,5.43,5.75,12.33,7,18.86a189.43,189.43,0,0,1,3.1,25.95C200.33,118.47,209.33,118.5,209,112.71Z"/><path class="cls-3" d="M90.84,200.65c5-.26,11.63-.79,16.59-1.49-27.6-33.09-31.59-77-28-120.86,1.15-14.11,3.23-28.55,10-40.8,8.5-15.41,21.4-21,36.25-27.95-4.42-.81-11.36-2-15.84-2-8.2,0-14.64,1.4-22.76,2.68-9.55,1.51-16.85,4.15-22.87,12.84-4.42,6.39-3.59,16.57-2.91,24.71.43,5.17.56,7.69,2.09,12.59-5.21.36-12-3.94-17.53-6C38.29,51.62,29.09,49.2,22,53c-6.54,3.47-10,12.94-12.44,20.21s-2.06,13.67-2,21.22,1,11.76,1.83,19.19c1.25,11,4,20.74,12.55,27.8,5.56,4.6,13.8,2.77,20.84,2s11.6-4.49,18.08-7.48c3.17-1.46,5.21-2,7,.86-.3,2.9-2.76,11.5-3.84,13.32-4.23,7.12-4.81,6.72-6.88,16.23-1.78,8.18-2.34,11.46.64,18.9,2.84,7.1,7.22,10.7,14.25,12.88A48.34,48.34,0,0,0,90.84,200.65Z"/></g></g></svg>