<svg xmlns="http://www.w3.org/2000/svg" viewBox="0 0 220 220"><defs><style>.cls-1{fill:#0a0087;}.cls-2{fill:#534bf9;}.cls-3{fill:#1414dd;}.cls-4{fill:#101066;}.cls-5{fill:#4b4bdd;}</style></defs><title>Asset 8power</title><g id="Layer_2" data-name="Layer 2"><g id="Layer_1-2" data-name="Layer 1"><path class="cls-1" d="M110,215A105,105,0,1,1,215,110,105.12,105.12,0,0,1,110,215Z"/><path class="cls-2" d="M110,10A100,100,0,1,1,10,110,100,100,0,0,1,110,10m0-10A110,110,0,0,0,32.22,187.78,110,110,0,1,0,187.78,32.22,109.28,109.28,0,0,0,110,0Z"/><path class="cls-3" d="M110,10A100,100,0,0,0,54,192.85c0-.45.23-1,0-1.34-20.4-28.45-24.59-43.31-23.45-74.17C31.58,88.54,67.65,85,93.75,72.77c23.62-11,31.85-46.48,31.85-61.55A100.73,100.73,0,0,0,110,10Z"/><path class="cls-4" d="M130.88,120.92c-8.77-.34-17.7-.67-26.16,1.69s-16.5,7.87-19.65,16.06c-3.56,9.25-.13,20,5.95,27.81,9.47,12.19,26.66,19,41.06,13.44,10-3.87,17.95-13.07,28.62-14.27,1.62-.18,3.33-.19,4.75-1,2.65-1.51,3.18-5,3.34-8.1q.56-10.43.18-20.88c-.31-8.5-2.1-18.52-9.81-22.13-4.59-2.15-10.07-1.26-14.78.62s-9,4.69-13.77,6.47"/><ellipse class="cls-5" cx="77.79" cy="48.73" rx="14.31" ry="7.86" transform="translate(-13.2 60.87) rotate(-39.66)"/></g></g></svg>