<svg xmlns="http://www.w3.org/2000/svg" viewBox="0 0 214.93 214.93"><defs><style>.cls-1{fill:#e2e2e2;}.cls-2{fill:#a8a8a8;}.cls-3{fill:#c9c9c9;}.cls-4{fill:#5b3318;}.cls-5{fill:#331a09;}.cls-6{fill:#5b2d00;}.cls-7{fill:#190a00;}.cls-8{fill:#823e00;}</style></defs><title>Asset 3power</title><g id="Layer_2" data-name="Layer 2"><g id="Layer_1-2" data-name="Layer 1"><path class="cls-1" d="M99.95,151.23a5,5,0,0,1-3.72-1.65l-28.79-32a5,5,0,0,1-.15-6.52L152.91,6.83A5,5,0,0,1,156.77,5l48.32,1.58a5,5,0,0,1,4.84,5.08l-.83,50.15a5,5,0,0,1-1.85,3.8l-104.15,84.5A5,5,0,0,1,99.95,151.23Z"/><path class="cls-2" d="M156.77,10l48.16,1.58-.83,50.15L99.94,146.23l-28.79-32L156.77,10m0-10A10,10,0,0,0,149,3.65L63.42,107.92a10,10,0,0,0,.3,13l28.79,32A10,10,0,0,0,106.24,154L210.4,69.5a10,10,0,0,0,3.7-7.6l.83-50.15a10,10,0,0,0-9.67-10.16L157.1,0Z"/><path class="cls-3" d="M85.29,129.67l14.79,16.42L204.23,61.6l.82-49.6C179.36,35.64,117.26,96.71,85.29,129.67Z"/><polygon class="cls-4" points="86.11 161.26 28.72 210 12.35 202.52 5.06 184.13 56.14 127.83 86.11 161.26"/><path d="M82.57,157.73,25.19,206.46l6.06-.78L14.87,198.2l2.3,3L9.88,182.8l-1.29,4.86,51.09-56.3H52.61l30,33.44c4.3,4.8,11.36-2.29,7.07-7.07l-30-33.44a5,5,0,0,0-7.07,0L1.52,180.59c-1.11,1.23-1.95,3.2-1.29,4.86,2.44,6.16,4.3,13.21,7.54,19,1.75,3.12,5.81,4.11,8.92,5.53l9.5,4.34a5.28,5.28,0,0,0,6.06-.78L89.64,164.8C94.55,160.63,87.45,153.58,82.57,157.73Z"/><path class="cls-5" d="M72.9,138.48a607,607,0,0,1-57.43,58.36l.79,2,11.52,5.26L87,154.84Z"/><polygon class="cls-6" points="111.82 140.87 88.97 128.2 77.93 103.82 45.44 85.24 37.48 97.39 68.69 148.3 114.26 182.23 125.34 174.95 111.82 140.87"/><path class="cls-7" d="M114.35,136.55,97.17,127c-1.34-.74-2.67-1.58-4.05-2.25-3.27-1.58.61.1.12.79.43-.61-3-6.57-3.3-7.3L84.7,106.72c-.91-2-1.65-4.8-3.24-6.43-1.3-1.34-3.43-2.17-5-3.07L66.34,91.43,48,80.93a5.11,5.11,0,0,0-6.84,1.79l-8,12.15a5,5,0,0,0,0,5L60.25,144.1c2.55,4.15,4.42,7.41,8.33,10.31l23.54,17.52,19.61,14.6a4.86,4.86,0,0,0,5,0l11.08-7.27c1.69-1.11,3.13-3.55,2.3-5.65l-13.52-34.08c-2.35-5.91-12-3.33-9.64,2.66l13.52,34.08,2.3-5.65-11.08,7.27h5L76.37,147.82c-.7-.52-4.19-4-5.13-3.82,1.46-.21,2.3,3.07,1,.5-.61-1.2-1.43-2.33-2.13-3.48L54,114.85l-12.25-20v5l8-12.15-6.84,1.79,15,8.56,10.93,6.25c1.34.76,4.73,3.61,6.33,3.62-.36,0-1.53-2.75-1.16-.82A20.07,20.07,0,0,0,75.73,111l5.19,11.46c1.16,2.57,2.11,5.57,3.61,8,1.18,1.89,3,2.66,4.87,3.7l19.9,11C114.93,148.31,120,139.68,114.35,136.55Z"/><path class="cls-8" d="M81.24,122.62l-6.2-15L46.69,92l-3.27,5.54,23.25,39.75,5.76,7.57c5.81-2.72,2.46-10.07,4.55-13.64C81.63,123.24,81.24,122.62,81.24,122.62Z"/></g></g></svg>